# xmcd
#
# Track frame offsets:
#	150
#	12724
#	27616
#	39158
#	50513
#	61732
#	74607
#	86195
#	98727
#	112303
#	126701
#	136513
#	148663
#	161990
#	174257
#	184872
#	196772
#	207747
#	217364
#	230786
#	244667
#	257992
#	268270
#	279996
#	292742
#
# Disc length: 4071
#
# Revision: 1
# Processed by: cddbd v1.5.1PL0 Copyright (c) Steve Scherf et al.
# Submitted via: EasyCDDAExtractor 4.6.0.1
# Normalized: r0:TDELIM( - )
#
DISCID=960fe519
DTITLE=Various Artist - Forever DooWop  Vol 06
DYEAR=1900
DGENRE=Blues
TTITLE0=Champs (Tony Allen and the) - Nite Owl
TTITLE1=Five Keys - My Saddest Hour
TTITLE2=Channels - That's My Desire
TTITLE3=Flamingos - But Not For Me
TTITLE4=El Capris - They're Always Laughing At Me
TTITLE5=Bobbettes - You Are My Sweetheart
TTITLE6=Cameos - I Remember When
TTITLE7=Flamingos - The Nearness Of You
TTITLE8=Donnie Elbert - Have I Sinned
TTITLE9=Flamingos - Carried Away
TTITLE10=Clyde McPhatter - Treasure Of Love
TTITLE11=Hearts (Lee Andrews and the) - Lonely Room
TTITLE12=Velvetones - Glory Of Love
TTITLE13=Van Dykes - The Bells Are Ringing
TTITLE14=Lenny Myles - Don't Believe Him Donna
TTITLE15=Hide-A-Ways - Cherie
TTITLE16=Admirations - Mixture Of Love
TTITLE17=Melo Gents - Baby Be Mine
TTITLE18=Charles Brown - Angel Baby
TTITLE19=Moonglows - Most Of All
TTITLE20=Royal Notes - Three Speed Girl
TTITLE21=Inspirations - Dry Your Eyes
TTITLE22=Belmonts (Dion and the) - That's My Desire
TTITLE23=Del Satins (Dion and the) - In The Still Of The Night
TTITLE24=Spaniels - You Gave Me Peace Of Mind
EXTD=
EXTT0=
EXTT1=
EXTT2=
EXTT3=
EXTT4=
EXTT5=
EXTT6=
EXTT7=
EXTT8=
EXTT9=
EXTT10=
EXTT11=
EXTT12=
EXTT13=
EXTT14=
EXTT15=
EXTT16=
EXTT17=
EXTT18=
EXTT19=
EXTT20=
EXTT21=
EXTT22=
EXTT23=
EXTT24=
PLAYORDER=
